<?xml version="1.0" encoding="UTF-8" standalone="no"?>
<!-- Created with Inkscape (http://www.inkscape.org/) -->

<svg
   xmlns:dc="http://purl.org/dc/elements/1.1/"
   xmlns:cc="http://creativecommons.org/ns#"
   xmlns:rdf="http://www.w3.org/1999/02/22-rdf-syntax-ns#"
   xmlns:svg="http://www.w3.org/2000/svg"
   xmlns="http://www.w3.org/2000/svg"
   xmlns:xlink="http://www.w3.org/1999/xlink"
   xmlns:sodipodi="http://sodipodi.sourceforge.net/DTD/sodipodi-0.dtd"
   xmlns:inkscape="http://www.inkscape.org/namespaces/inkscape"
   width="64px"
   height="64px"
   id="svg2985"
   version="1.1"
   inkscape:version="0.48.2 r9819"
   inkscape:export-filename="/Users/michaelwhitehead/Desktop/gears_icon.png"
   inkscape:export-xdpi="703.12"
   inkscape:export-ydpi="703.12"
   sodipodi:docname="gears_icon.svg">
  <sodipodi:namedview
     id="base"
     pagecolor="#ffffff"
     bordercolor="#666666"
     borderopacity="1.0"
     inkscape:pageopacity="0"
     inkscape:pageshadow="2"
     inkscape:zoom="8.7676632"
     inkscape:cx="12.17712"
     inkscape:cy="31.807472"
     inkscape:current-layer="layer1"
     showgrid="true"
     inkscape:document-units="px"
     inkscape:grid-bbox="true"
     inkscape:window-width="1366"
     inkscape:window-height="745"
     inkscape:window-x="13"
     inkscape:window-y="22"
     inkscape:window-maximized="0" />
  <defs
     id="defs2987">
    <color-profile
       name="Generic-RGB-Profile"
       xlink:href="/System/Library/ColorSync/Profiles/Generic RGB Profile.icc"
       id="color-profile5061" />
  </defs>
  <metadata
     id="metadata2990">
    <rdf:RDF>
      <cc:Work
         rdf:about="">
        <dc:format>image/svg+xml</dc:format>
        <dc:type
           rdf:resource="http://purl.org/dc/dcmitype/StillImage" />
        <dc:title></dc:title>
      </cc:Work>
    </rdf:RDF>
  </metadata>
  <g
     inkscape:groupmode="layer"
     inkscape:label="Layer 1 copy"
     id="g5056">
    <path
       transform="matrix(1.2100136,0,0,1.2100136,31.484929,-41.728302)"
       d="m 22.742858,48.380204 0,25.421408 L 0.72727286,86.512316 -21.288312,73.801612 l 0,-25.421408 L 0.72727264,35.6695 z"
       inkscape:randomized="0"
       inkscape:rounded="0"
       inkscape:flatsided="true"
       sodipodi:arg2="0"
       sodipodi:arg1="-0.52359878"
       sodipodi:r2="22.015585"
       sodipodi:r1="25.421408"
       sodipodi:cy="61.090908"
       sodipodi:cx="0.72727275"
       sodipodi:sides="6"
       id="path5058"
       style="fill:#ffffff;fill-rule:evenodd;stroke:#fc3f49;stroke-width:1px;stroke-linecap:butt;stroke-linejoin:miter;stroke-opacity:1;fill-opacity:1"
       sodipodi:type="star" />
  </g>
  <g
     id="layer1"
     inkscape:label="Layer 1"
     inkscape:groupmode="layer">
    <path
       sodipodi:type="star"
       style="fill:#fc3f49;fill-rule:evenodd;stroke:#fc3f49;stroke-width:1px;stroke-linecap:butt;stroke-linejoin:miter;stroke-opacity:1;fill-opacity:1"
       id="path3001"
       sodipodi:sides="6"
       sodipodi:cx="0.72727275"
       sodipodi:cy="61.090908"
       sodipodi:r1="25.421408"
       sodipodi:r2="22.015585"
       sodipodi:arg1="-0.52359878"
       sodipodi:arg2="0"
       inkscape:flatsided="true"
       inkscape:rounded="0"
       inkscape:randomized="0"
       d="m 22.742858,48.380204 0,25.421408 L 0.72727286,86.512316 -21.288312,73.801612 l 0,-25.421408 L 0.72727264,35.6695 z"
       transform="matrix(1.2100136,0,0,1.2100136,31.484929,-41.728302)" />
  </g>
  <g
     inkscape:groupmode="layer"
     id="layer2"
     inkscape:label="graph" />
  <g
     transform="matrix(7.6701822,0,0,7.6701822,32,32)"
     inkscape:label="Gear8"
     id="g4255"
     style="stroke:#d3d3d3;stroke-opacity:1;stroke-width:0.99997625000000001;stroke-miterlimit:4;stroke-dasharray:none;fill-rule:nonzero">
    <path
       d="m 0.936,-0.188 0.293,-0.059 0.02,-0.001 0.337,0.121 0,0.254 L 1.249,0.248 1.229,0.247 0.936,0.188 0.795,0.529 1.044,0.695 1.059,0.707 1.212,1.032 1.032,1.212 0.707,1.059 0.695,1.044 0.529,0.795 0.188,0.936 l 0.059,0.293 0.001,0.02 -0.121,0.337 -0.254,0 -0.121,-0.337 0.001,-0.02 0.059,-0.293 -0.341,-0.141 -0.166,0.249 -0.012,0.015 -0.325,0.153 -0.18,-0.18 0.153,-0.325 0.015,-0.012 0.249,-0.166 -0.141,-0.341 -0.293,0.059 -0.02,0.001 -0.337,-0.121 0,-0.254 0.337,-0.121 0.02,0.001 0.293,0.059 0.141,-0.341 -0.249,-0.166 -0.015,-0.012 -0.153,-0.325 0.18,-0.18 0.325,0.153 0.012,0.015 0.166,0.249 0.341,-0.141 -0.059,-0.293 -0.001,-0.02 0.121,-0.337 0.254,0 0.121,0.337 -0.001,0.02 -0.059,0.293 0.341,0.141 0.166,-0.249 0.012,-0.015 0.325,-0.153 0.18,0.18 -0.153,0.325 -0.015,0.012 -0.249,0.166 z"
       style="fill:none;stroke:#d3d3d3;stroke-opacity:1;stroke-width:0.99997625000000001;stroke-miterlimit:4;stroke-dasharray:none;fill-rule:nonzero"
       id="path4257"
       inkscape:connector-curvature="0" />
  </g>
</svg>
