<?xml version="1.0" encoding="UTF-8" standalone="no"?>
<!-- Created with Inkscape (http://www.inkscape.org/) -->

<svg
   xmlns:dc="http://purl.org/dc/elements/1.1/"
   xmlns:cc="http://creativecommons.org/ns#"
   xmlns:rdf="http://www.w3.org/1999/02/22-rdf-syntax-ns#"
   xmlns:svg="http://www.w3.org/2000/svg"
   xmlns="http://www.w3.org/2000/svg"
   xmlns:sodipodi="http://sodipodi.sourceforge.net/DTD/sodipodi-0.dtd"
   xmlns:inkscape="http://www.inkscape.org/namespaces/inkscape"
   width="640px"
   height="480px"
   id="svg2996"
   version="1.1"
   inkscape:version="0.48.2 r9819"
   sodipodi:docname="magnet_icon.svg">
  <defs
     id="defs2998" />
  <sodipodi:namedview
     id="base"
     pagecolor="#ffffff"
     bordercolor="#666666"
     borderopacity="1.0"
     inkscape:pageopacity="0.0"
     inkscape:pageshadow="2"
     inkscape:zoom="1.1030866"
     inkscape:cx="313.97182"
     inkscape:cy="250.05924"
     inkscape:current-layer="layer1"
     inkscape:document-units="px"
     showgrid="false"
     inkscape:window-width="1283"
     inkscape:window-height="767"
     inkscape:window-x="24"
     inkscape:window-y="20"
     inkscape:window-maximized="0" />
  <metadata
     id="metadata3001">
    <rdf:RDF>
      <cc:Work
         rdf:about="">
        <dc:format>image/svg+xml</dc:format>
        <dc:type
           rdf:resource="http://purl.org/dc/dcmitype/StillImage" />
        <dc:title />
      </cc:Work>
    </rdf:RDF>
  </metadata>
  <g
     id="layer1"
     inkscape:label="Layer 1"
     inkscape:groupmode="layer">
    <rect
       style="fill:#55b8f7;fill-opacity:1;fill-rule:nonzero;stroke:none"
       id="rect3848"
       width="644.06781"
       height="483.05084"
       x="0"
       y="0.3389833" />
    <path
       style="fill:#000000;stroke:none;stroke-opacity:1;fill-opacity:1"
       d="m 198.35078,63.038517 c -2.22566,24.081633 -2.96163,48.341723 -5.82444,72.362613"
       id="path3812" />
    <g
       id="g3861">
      <path
         inkscape:connector-curvature="0"
         id="path3816"
         d="m 268.55158,269.24769 c -1.83477,3.32455 -1.67648,3.29032 -25.00603,5.40873 -11.38163,1.03352 -20.74243,1.82195 -20.8018,1.75211 -0.30208,-0.35548 -5.23194,-60.36422 -4.97625,-60.57356 0.36933,-0.3024 38.08004,-3.72557 40.83535,-3.7068 2.51377,0.017 4.51235,1.15901 5.77283,3.29834 0.87496,1.48502 1.1195,3.55109 3.05131,25.77971 1.15507,13.29093 2.10178,24.63675 2.10379,25.21297 0.002,0.57622 -0.43862,1.84903 -0.9792,2.8285 z"
         style="fill:#ffffff;stroke:#ffffff;stroke-width:12.05025672999999919;stroke-miterlimit:4;stroke-opacity:1;stroke-dasharray:none;opacity:0.69999999999999996;fill-opacity:1" />
      <path
         inkscape:connector-curvature="0"
         id="path3814"
         d="m 270.54687,105.31118 c -1.76254,20.85729 -2.0262,23.14418 -2.84801,24.70167 -1.17789,2.23234 -3.11308,3.41748 -5.579,3.41667 -2.75622,-8.1e-4 -38.83502,-3.29192 -39.17593,-3.41358 -0.30165,-0.10765 4.54329,-60.36332 4.83076,-60.717824 0.0553,-0.06806 9.01984,0.716889 19.92145,1.744348 17.48212,1.647665 20.0092,1.971572 21.41528,2.744885 2.14353,1.178899 3.49351,3.733261 3.42727,6.484896 -0.0272,1.129505 -0.92351,12.397018 -1.99182,25.038935 z"
         style="fill:#ffffff;stroke:#ffffff;stroke-width:11.78048229000000013;stroke-miterlimit:4;stroke-opacity:1;stroke-dasharray:none;opacity:0.69999999999999996;fill-opacity:1" />
      <path
         inkscape:connector-curvature="0"
         id="path3015"
         d="m 217.10261,135.40113 c -10.02435,-1.23858 -18.92,-1.98468 -27.05792,-2.75206 -20.75432,-1.95432 -24.04457,-2.15898 -27.69457,-1.72264 -5.22153,0.6242 -10.75558,2.45561 -15.08441,4.99196 -4.66795,2.73504 -11.50783,9.66771 -14.36112,14.55592 -4.54517,7.78672 -6.68783,17.99195 -5.64106,26.86768 1.2191,10.3369 5.08857,18.40564 12.26156,25.5682 6.82584,6.81589 13.73476,10.24628 22.82503,11.33297 3.65,0.43634 6.94025,0.23168 27.69457,-1.72264 9.00003,-1.10182 18.11215,-1.38814 27.07936,-2.75567 1.7629,23.79954 4.75719,48.57522 5.96704,72.41283 -2.92324,0.66987 -22.31569,2.23663 -24.2067,2.41735 -12.52841,1.19834 -25.5908,2.30861 -29.02753,2.46726 -14.37189,0.66344 -29.91137,-2.28619 -43.98064,-8.3482 -37.264373,-16.05605 -62.976053,-52.92985 -66.796793,-95.79505 -3.36068,-37.70373 11.71631,-75.51139 39.63935,-99.401241 13.140563,-11.242546 27.328113,-18.550608 43.980643,-22.654617 14.1876,-3.496527 23.11479,-3.548559 56.23753,-0.327792 13.08604,1.272453 23.88159,2.398862 23.9901,2.503127"
         style="fill:#ffffff;fill-opacity:1;stroke:none" />
    </g>
    <path
       style="fill:#ffffff;fill-opacity:1;stroke:none"
       d="m 286.19476,108.9346 21.96396,-17.226633 10.76666,12.489313 21.10262,-3.01466 -21.96395,15.50397 -9.90533,-11.62798 z"
       id="path3842"
       inkscape:connector-curvature="0"
       sodipodi:nodetypes="ccccccc" />
    <path
       sodipodi:nodetypes="ccccccc"
       inkscape:connector-curvature="0"
       id="path3846"
       d="m 288.73713,242.83289 21.96396,-17.22662 10.76666,12.4893 21.10262,-3.01466 -21.96395,15.50397 -9.90533,-11.62798 z"
       style="fill:#ffffff;fill-opacity:1;stroke:none" />
    <flowRoot
       xml:space="preserve"
       id="flowRoot3867"
       style="fill:black;stroke:none;stroke-opacity:1;stroke-width:1px;stroke-linejoin:miter;stroke-linecap:butt;fill-opacity:1;font-family:Ubuntu;font-style:normal;font-weight:normal;font-size:40px;line-height:125%;letter-spacing:0px;word-spacing:0px;-inkscape-font-specification:Ubuntu"><flowRegion
         id="flowRegion3869"><rect
           id="rect3871"
           width="110.59875"
           height="174.96361"
           x="402.50693"
           y="90.184723"
           style="-inkscape-font-specification:Ubuntu;font-family:Ubuntu" /></flowRegion><flowPara
         id="flowPara3873" /></flowRoot>    <flowRoot
       xml:space="preserve"
       id="flowRoot3045"
       style="font-size:40px;font-style:normal;font-variant:normal;font-weight:normal;font-stretch:normal;line-height:125%;letter-spacing:0px;word-spacing:0px;fill:#ffffff;fill-opacity:1;stroke:none;font-family:Maagkramp;-inkscape-font-specification:Maagkramp"
       transform="matrix(7.9970694,0,0,7.9970694,-3056.5578,-707.46159)"><flowRegion
         id="flowRegion3047"><rect
           id="rect3049"
           width="23.570225"
           height="48.953545"
           x="424.26407"
           y="85.651993"
           style="font-style:normal;font-variant:normal;font-weight:normal;font-stretch:normal;fill:#ffffff;fill-opacity:1;font-family:Maagkramp;-inkscape-font-specification:Maagkramp" /></flowRegion><flowPara
         id="flowPara3051" /></flowRoot>    <flowRoot
       xml:space="preserve"
       id="flowRoot3821"
       style="fill:black;stroke:none;stroke-opacity:1;stroke-width:1px;stroke-linejoin:miter;stroke-linecap:butt;fill-opacity:1;font-family:Sans;font-style:normal;font-weight:normal;font-size:40px;line-height:125%;letter-spacing:0px;word-spacing:0px"><flowRegion
         id="flowRegion3823"><rect
           id="rect3825"
           width="363.52539"
           height="97.000542"
           x="118.75768"
           y="358.52267" /></flowRegion><flowPara
         id="flowPara3827" /></flowRoot>    <text
       xml:space="preserve"
       style="font-size:40px;font-style:normal;font-variant:normal;font-weight:normal;font-stretch:normal;line-height:125%;letter-spacing:0px;word-spacing:0px;fill:#000000;fill-opacity:1;stroke:none;font-family:Maagkramp;-inkscape-font-specification:Maagkramp"
       x="356.27304"
       y="453.71014"
       id="text3829"
       sodipodi:linespacing="125%"><tspan
         sodipodi:role="line"
         id="tspan3831"
         x="356.27304"
         y="453.71014" /></text>
    <flowRoot
       xml:space="preserve"
       id="flowRoot3833"
       style="font-size:40px;font-style:normal;font-variant:normal;font-weight:normal;font-stretch:normal;line-height:125%;letter-spacing:0px;word-spacing:0px;fill:#000000;fill-opacity:1;stroke:none;font-family:Maagkramp;-inkscape-font-specification:Maagkramp"><flowRegion
         id="flowRegion3835"><rect
           id="rect3837"
           width="290.09509"
           height="58.019016"
           x="165.89813"
           y="395.6911"
           style="font-style:normal;font-variant:normal;font-weight:normal;font-stretch:normal;font-family:Maagkramp;-inkscape-font-specification:Maagkramp" /></flowRegion><flowPara
         id="flowPara3839" /></flowRoot>    <text
       xml:space="preserve"
       style="font-size:40px;font-style:normal;font-weight:normal;line-height:125%;letter-spacing:0px;word-spacing:0px;fill:#000000;fill-opacity:1;stroke:none;font-family:Sans"
       x="414.29205"
       y="102.87639"
       id="text3841"
       sodipodi:linespacing="125%"><tspan
         sodipodi:role="line"
         id="tspan3843"
         x="414.29205"
         y="102.87639" /></text>
    <flowRoot
       xml:space="preserve"
       id="flowRoot3077"
       style="fill:black;stroke:none;stroke-opacity:1;stroke-width:1px;stroke-linejoin:miter;stroke-linecap:butt;fill-opacity:1;font-family:Sans;font-style:normal;font-weight:normal;font-size:40px;line-height:125%;letter-spacing:0px;word-spacing:0px"><flowRegion
         id="flowRegion3079"><rect
           id="rect3081"
           width="52.579735"
           height="68.897583"
           x="409.75931"
           y="91.091278" /></flowRegion><flowPara
         id="flowPara3083"></flowPara></flowRoot>    <text
       xml:space="preserve"
       style="font-size:302.61349487000001091px;font-style:normal;font-variant:normal;font-weight:normal;font-stretch:normal;line-height:125%;letter-spacing:0px;word-spacing:0px;fill:#ffffff;fill-opacity:1;stroke:none;font-family:Varela Round;-inkscape-font-specification:Varela Round"
       x="339.07443"
       y="274.3273"
       id="text3085"
       sodipodi:linespacing="125%"><tspan
         sodipodi:role="line"
         id="tspan3087"
         x="339.07443"
         y="274.3273">R</tspan></text>
    <text
       xml:space="preserve"
       style="font-size:86.25337982px;font-style:normal;font-variant:normal;font-weight:normal;font-stretch:normal;line-height:125%;letter-spacing:0px;word-spacing:0px;fill:#ffffff;fill-opacity:1;stroke:none;font-family:Varela Round;-inkscape-font-specification:Varela Round"
       x="215.81367"
       y="406.5787"
       id="text3857"
       sodipodi:linespacing="125%"><tspan
         sodipodi:role="line"
         id="tspan3859"
         x="215.81367"
         y="406.5787">aptusR</tspan></text>
    <g
       id="g3866"
       transform="matrix(0.29477445,0,0,0.29477445,125.64616,327.61187)">
      <path
         style="opacity:0.7;fill:#ffffff;fill-opacity:1;stroke:#ffffff;stroke-width:12.05025673;stroke-miterlimit:4;stroke-opacity:1;stroke-dasharray:none"
         d="m 268.55158,269.24769 c -1.83477,3.32455 -1.67648,3.29032 -25.00603,5.40873 -11.38163,1.03352 -20.74243,1.82195 -20.8018,1.75211 -0.30208,-0.35548 -5.23194,-60.36422 -4.97625,-60.57356 0.36933,-0.3024 38.08004,-3.72557 40.83535,-3.7068 2.51377,0.017 4.51235,1.15901 5.77283,3.29834 0.87496,1.48502 1.1195,3.55109 3.05131,25.77971 1.15507,13.29093 2.10178,24.63675 2.10379,25.21297 0.002,0.57622 -0.43862,1.84903 -0.9792,2.8285 z"
         id="path3868"
         inkscape:connector-curvature="0" />
      <path
         style="opacity:0.7;fill:#ffffff;fill-opacity:1;stroke:#ffffff;stroke-width:11.78048229;stroke-miterlimit:4;stroke-opacity:1;stroke-dasharray:none"
         d="m 270.54687,105.31118 c -1.76254,20.85729 -2.0262,23.14418 -2.84801,24.70167 -1.17789,2.23234 -3.11308,3.41748 -5.579,3.41667 -2.75622,-8.1e-4 -38.83502,-3.29192 -39.17593,-3.41358 -0.30165,-0.10765 4.54329,-60.36332 4.83076,-60.717824 0.0553,-0.06806 9.01984,0.716889 19.92145,1.744348 17.48212,1.647665 20.0092,1.971572 21.41528,2.744885 2.14353,1.178899 3.49351,3.733261 3.42727,6.484896 -0.0272,1.129505 -0.92351,12.397018 -1.99182,25.038935 z"
         id="path3870"
         inkscape:connector-curvature="0" />
      <path
         style="fill:#ffffff;fill-opacity:1;stroke:none"
         d="m 217.10261,135.40113 c -10.02435,-1.23858 -18.92,-1.98468 -27.05792,-2.75206 -20.75432,-1.95432 -24.04457,-2.15898 -27.69457,-1.72264 -5.22153,0.6242 -10.75558,2.45561 -15.08441,4.99196 -4.66795,2.73504 -11.50783,9.66771 -14.36112,14.55592 -4.54517,7.78672 -6.68783,17.99195 -5.64106,26.86768 1.2191,10.3369 5.08857,18.40564 12.26156,25.5682 6.82584,6.81589 13.73476,10.24628 22.82503,11.33297 3.65,0.43634 6.94025,0.23168 27.69457,-1.72264 9.00003,-1.10182 18.11215,-1.38814 27.07936,-2.75567 1.7629,23.79954 4.75719,48.57522 5.96704,72.41283 -2.92324,0.66987 -22.31569,2.23663 -24.2067,2.41735 -12.52841,1.19834 -25.5908,2.30861 -29.02753,2.46726 -14.37189,0.66344 -29.91137,-2.28619 -43.98064,-8.3482 -37.264373,-16.05605 -62.976053,-52.92985 -66.796793,-95.79505 -3.36068,-37.70373 11.71631,-75.51139 39.63935,-99.401241 13.140563,-11.242546 27.328113,-18.550608 43.980643,-22.654617 14.1876,-3.496527 23.11479,-3.548559 56.23753,-0.327792 13.08604,1.272453 23.88159,2.398862 23.9901,2.503127"
         id="path3872"
         inkscape:connector-curvature="0" />
    </g>
  </g>
</svg>
