<?xml version="1.0" encoding="UTF-8" standalone="no"?>
<!-- Created with Inkscape (http://www.inkscape.org/) -->

<svg
   xmlns:dc="http://purl.org/dc/elements/1.1/"
   xmlns:cc="http://creativecommons.org/ns#"
   xmlns:rdf="http://www.w3.org/1999/02/22-rdf-syntax-ns#"
   xmlns:svg="http://www.w3.org/2000/svg"
   xmlns="http://www.w3.org/2000/svg"
   xmlns:sodipodi="http://sodipodi.sourceforge.net/DTD/sodipodi-0.dtd"
   xmlns:inkscape="http://www.inkscape.org/namespaces/inkscape"
   width="64px"
   height="64px"
   id="svg3079"
   version="1.1"
   inkscape:version="0.48.2 r9819"
   sodipodi:docname="spash.svg">
  <defs
     id="defs3081" />
  <sodipodi:namedview
     id="base"
     pagecolor="#ffffff"
     bordercolor="#666666"
     borderopacity="1.0"
     inkscape:pageopacity="0.0"
     inkscape:pageshadow="2"
     inkscape:zoom="8"
     inkscape:cx="27.234848"
     inkscape:cy="31.984728"
     inkscape:current-layer="layer1"
     showgrid="true"
     inkscape:document-units="px"
     inkscape:grid-bbox="true"
     inkscape:window-width="826"
     inkscape:window-height="824"
     inkscape:window-x="601"
     inkscape:window-y="0"
     inkscape:window-maximized="0" />
  <metadata
     id="metadata3084">
    <rdf:RDF>
      <cc:Work
         rdf:about="">
        <dc:format>image/svg+xml</dc:format>
        <dc:type
           rdf:resource="http://purl.org/dc/dcmitype/StillImage" />
        <dc:title />
      </cc:Work>
    </rdf:RDF>
  </metadata>
  <g
     id="layer1"
     inkscape:label="Layer 1"
     inkscape:groupmode="layer"
     style="display:inline">
    <rect
       style="fill:#e83a4a;fill-opacity:1;fill-rule:nonzero;stroke:#e83a4a;stroke-width:1.56089664;stroke-miterlimit:4;stroke-opacity:1;stroke-dasharray:none"
       id="rect3111"
       width="8.4391031"
       height="8.4391031"
       x="0.78044832"
       y="54.780453" />
    <rect
       style="fill:#e83a4a;fill-opacity:1;stroke:#e83a4a;stroke-width:0.78702939;stroke-opacity:1"
       id="rect3806"
       width="9.2129698"
       height="13.212971"
       x="13.393513"
       y="50.393513" />
    <rect
       style="fill:#f5e800;fill-opacity:1;fill-rule:nonzero;stroke:#f5e800;stroke-width:1.9295752;stroke-miterlimit:4;stroke-opacity:1;stroke-dasharray:none"
       id="rect3808"
       width="8.070425"
       height="20.070425"
       x="27.964788"
       y="42.964783" />
    <rect
       style="fill:#64b958;fill-opacity:1;fill-rule:nonzero;stroke:#64b958;stroke-width:1.88718593;stroke-miterlimit:4;stroke-opacity:1;stroke-dasharray:none"
       id="rect3810"
       width="8.1128139"
       height="28.112814"
       x="41.943588"
       y="34.943596" />
    <rect
       style="fill:#64b958;fill-opacity:1;fill-rule:nonzero;stroke:#64b958;stroke-width:2.11847973;stroke-miterlimit:4;stroke-opacity:1;stroke-dasharray:none"
       id="rect3812"
       width="7.8815198"
       height="35.881519"
       x="55.059238"
       y="27.05924" />
    <path
       style="fill:#d9d9d9;fill-opacity:1;stroke:#d9d9d9;stroke-width:0.84084791000000003px;stroke-linecap:butt;stroke-linejoin:miter;stroke-opacity:1"
       d="m 30.954026,39.44876 c -0.231132,-1.052816 2.631218,-3.01205 2.949124,-5.131667 0.256043,-1.70715 -1.444,-3.802246 -1.26156,-5.51902 0.174147,-1.638731 1.587006,-4.677188 1.587006,-4.677188 0,0 -2.136152,1.353658 -2.631905,1.932457 -0.700069,0.81734 -1.206397,1.977977 -1.668976,2.52334 -0.462579,0.545363 -1.148065,-0.34165 -0.870293,-0.897873 0.277772,-0.556224 1.404415,-2.204078 2.311641,-3.127463 0.70949,-0.722128 1.971744,-2.042054 2.925658,-2.368153 1.348787,-0.461089 2.855358,-0.164625 4.271628,-0.01601 0.867729,0.09106 1.607827,0.149021 2.649331,-0.208597 1.041503,-0.357618 1.605833,-0.56148 2.236315,-0.906351 0.630481,-0.344871 1.281853,0.619026 0.708789,0.914191 -0.573063,0.295165 -2.217744,1.066372 -3.478125,1.400538 -0.866151,0.229645 -2.811693,0.427844 -2.811693,0.427844 0,0 -0.720264,3.453417 0.192892,4.735999 0.724717,1.017909 2.262692,1.225619 3.330028,1.865333 1.203819,0.721517 2.266145,1.840528 2.824797,2.378931 0.558653,0.538402 -1.04472,1.198931 -1.539467,0.64138 -0.494748,-0.557551 -2.032011,-1.871179 -3.282189,-2.373389 -1.096494,-0.440473 -3.803571,-0.708198 -3.803571,-0.708198 0,0 0.528569,3.381404 0.255213,4.497985 -0.505403,2.064429 -2.041263,3.464258 -2.876447,4.631924 -0.835184,1.167666 -1.787063,1.036802 -2.018196,-0.01602 z"
       id="path3826"
       inkscape:connector-curvature="0"
       sodipodi:nodetypes="zsscszzsssszzscsszzscszz" />
    <path
       sodipodi:type="arc"
       style="fill:#d9d9d9;fill-opacity:1;fill-rule:nonzero;stroke:#d9d9d9;stroke-width:2;stroke-miterlimit:4;stroke-opacity:1;stroke-dasharray:none"
       id="path3828"
       sodipodi:cx="38.379448"
       sodipodi:cy="12.379447"
       sodipodi:rx="1.8577075"
       sodipodi:ry="2.1343873"
       d="m 40.237155,12.379447 a 1.8577075,2.1343873 0 1 1 -3.715415,0 1.8577075,2.1343873 0 1 1 3.715415,0 z"
       transform="matrix(0.80626552,0,0,0.70174965,5.3040861,10.127024)" />
    <path
       style="fill:#d9d9d9;fill-opacity:1;stroke:#d9d9d9;stroke-width:1px;stroke-linecap:butt;stroke-linejoin:miter;stroke-opacity:1"
       d="m 61.168429,25.398564 c -0.511486,-0.321379 -2.171575,-1.6139 -3.43124,-2.045546 -1.53044,-0.524432 -4.81693,-0.593868 -4.81693,-0.593868 0,0 -1.589045,3.290102 -2.177516,5.014888 -0.578791,1.696414 -1.003787,4.475005 -1.319708,5.212843 -0.315921,0.737838 -1.573601,0.749773 -1.649634,0.06599 -0.07603,-0.683783 0.683374,-3.809147 1.187736,-5.67474 0.344895,-1.27574 0.890226,-2.490601 1.253723,-3.761166 0.155542,-0.543681 0.426889,-1.084991 0.395912,-1.649635 -0.113955,-2.077129 -2.111532,-5.872691 -2.111532,-5.872691 0,0 -1.007278,0.141249 -1.750114,1.259392 -0.742835,1.118142 -1.3532,3.015221 -1.61514,3.227613 -0.26194,0.212391 -0.867337,0.07949 -0.593868,-0.593868 0.273469,-0.673359 1.210135,-3.148538 2.243501,-4.289049 0.64391,-0.710674 1.403986,-1.399805 2.30949,-1.71562 1.288299,-0.449323 2.754304,-0.405116 4.091091,-0.131976 1.021973,0.208816 2.337397,1.11538 3.233283,1.649628 1.107028,0.660158 3.036187,1.686015 3.629196,2.111533 0.593008,0.425518 0.23291,1.096159 -0.395914,0.659853 -0.628823,-0.436306 -5.806711,-2.969341 -5.806711,-2.969341 0,0 -0.005,4.488908 1.187737,5.806712 0.91485,1.010818 2.688286,0.615726 3.893135,1.253723 1.232598,0.652689 2.413231,1.580051 2.969342,2.177516 0.556111,0.597465 -0.214353,1.179188 -0.725839,0.857809 z"
       id="path3882"
       inkscape:connector-curvature="0"
       sodipodi:nodetypes="zscszzssscszzsssszzcsszz" />
    <path
       sodipodi:type="arc"
       style="fill:#d9d9d9;fill-opacity:1;fill-rule:nonzero;stroke:#d9d9d9;stroke-width:2;stroke-miterlimit:4;stroke-opacity:1;stroke-dasharray:none"
       id="path3884"
       sodipodi:cx="52.128433"
       sodipodi:cy="9.4630995"
       sodipodi:rx="1.2537218"
       sodipodi:ry="1.022773"
       d="m 53.382155,9.4630995 a 1.2537218,1.022773 0 1 1 -2.507444,0 1.2537218,1.022773 0 1 1 2.507444,0 z"
       transform="matrix(0.95303312,0,0,1.1682342,0.66298108,-0.56552296)" />
  </g>
</svg>
